<mxfile host="app.diagrams.net" modified="2024-04-10T12:44:10.030Z" agent="Mozilla/5.0 (Windows NT 10.0; Win64; x64; rv:124.0) Gecko/20100101 Firefox/124.0" version="24.2.3" etag="hHxbBLie6kEgW8CAq1x-" type="github">
  <diagram name="第 1 页" id="z7EOW90zNCURaVN2Vlw2">
    <mxGraphModel>
      <root>
        <mxCell id="0" />
        <mxCell id="1" parent="0" />
      </root>
    </mxGraphModel>
  </diagram>
</mxfile>
